<?xml version="1.0" encoding="UTF-8" standalone="no"?>
<svg
   xmlns:dc="http://purl.org/dc/elements/1.1/"
   xmlns:cc="http://creativecommons.org/ns#"
   xmlns:rdf="http://www.w3.org/1999/02/22-rdf-syntax-ns#"
   xmlns:svg="http://www.w3.org/2000/svg"
   xmlns="http://www.w3.org/2000/svg"
   viewBox="0 0 867.71997 156.82668"
   height="156.82668"
   width="867.71997"
   xml:space="preserve"
   id="svg2"
   version="1.1"><metadata
     id="metadata8"><rdf:RDF><cc:Work
         rdf:about=""><dc:format>image/svg+xml</dc:format><dc:type
           rdf:resource="http://purl.org/dc/dcmitype/StillImage" /></cc:Work></rdf:RDF></metadata><defs
     id="defs6" /><g
     transform="matrix(1.3333333,0,0,-1.3333333,0,156.82667)"
     id="g10"><g
       transform="scale(0.1)"
       id="g12"><path
         id="path14"
         style="fill:#b21c28;fill-opacity:1;fill-rule:nonzero;stroke:none"
         d="m 1549.11,880.031 12,16.805 c 4.5,-4.199 18.9,-17.699 45.59,-17.699 24.6,0 40.81,16.199 40.81,33.898 0,24.297 -22.8,34.496 -45.9,45.899 -24.31,12 -46.5,24.898 -46.5,56.696 0,32.7 27.6,51 58.2,51 29.69,0 45.89,-10.8 52.49,-15.9 l -11.4,-17.4 c -6.89,5.4 -20.4,13.8 -41.4,13.8 -19.79,0 -34.79,-12 -34.79,-30.3 0,-19.799 16.19,-29.096 35.99,-38.396 26.41,-12.602 57,-26.102 57,-65.102 0,-31.496 -26.7,-53.695 -65.39,-53.695 -30.6,0 -49.5,13.496 -56.7,20.394" /><path
         id="path16"
         style="fill:#b21c28;fill-opacity:1;fill-rule:nonzero;stroke:none"
         d="m 1724.31,897.734 v 92.098 h -23.7 v 17.398 h 23.7 v 41.1 h 21.89 v -41.1 h 36.3 v -17.398 h -36.3 v -90 c 0,-14.398 4.21,-21.297 16.8,-21.297 9,0 17.1,4.5 19.5,6.305 l 8.1,-16.508 c -4.2,-2.691 -14.7,-8.695 -30.3,-8.695 -24,0 -35.99,14.097 -35.99,38.097" /><path
         id="path18"
         style="fill:#b21c28;fill-opacity:1;fill-rule:nonzero;stroke:none"
         d="m 1907,953.23 c -0.6,20.403 -9.9,38.704 -34.8,38.704 -23.1,0 -35.7,-16.204 -39.6,-38.704 z m -98.99,-17.097 c 0,42.301 26.39,74.697 64.79,74.697 35.7,0 56.7,-25.498 56.7,-64.795 0,-3.301 -0.3,-6.601 -0.6,-10.203 h -97.49 c 0.59,-30.598 12.89,-57.297 45.29,-57.297 20.1,0 33.6,8.996 39.9,12.899 l 9,-17.098 c -7.2,-4.801 -23.4,-14.699 -49.5,-14.699 -45.29,0 -68.09,33.898 -68.09,76.496" /><path
         id="path20"
         style="fill:#b21c28;fill-opacity:1;fill-rule:nonzero;stroke:none"
         d="m 1948.1,1007.23 h 23.99 l 30.61,-108.898 h 0.6 l 33.89,108.898 h 21.3 l 33.9,-109.195 h 0.6 l 30.9,109.195 h 22.2 l -43.2,-143.992 h -19.8 l -35.7,111.895 h -0.6 L 2010.8,863.238 H 1991 l -42.9,143.992" /><path
         id="path22"
         style="fill:#b21c28;fill-opacity:1;fill-rule:nonzero;stroke:none"
         d="m 2248.69,899.234 v 32.403 h -6.3 c -30.9,0 -53.4,-8.399 -53.4,-32.703 0,-15 12.61,-20.399 21.3,-20.399 16.2,0 29.1,8.403 38.4,20.699 z m -83.09,-0.902 c 0,38.102 42,49.5 76.79,49.5 h 6.3 v 13.5 c 0,21.301 -9,30 -28.8,30 -13.2,0 -24.59,-4.199 -37.49,-15.602 l -11.7,15.301 c 14.1,13.199 30.59,19.799 50.7,19.799 31.5,0 49.19,-15.002 49.19,-47.697 v -67.195 c 0,-14.403 1.5,-25.801 3.3,-32.7 h -21.9 c -0.9,3.899 -1.79,12.899 -2.1,17.395 -9.6,-11.996 -25.5,-20.996 -43.2,-20.996 -23.99,0 -41.09,15.301 -41.09,38.695" /><path
         id="path24"
         style="fill:#b21c28;fill-opacity:1;fill-rule:nonzero;stroke:none"
         d="m 2318.59,1007.23 h 21.9 v -22.5 c 5.7,9.598 18.3,26.1 38.4,26.1 8.7,0 13.2,-2.1 15,-3 l -5.4,-21.002 c -1.5,0.906 -5.11,2.406 -12.61,2.406 -21.59,0 -33.59,-24.906 -35.39,-29.402 v -96.594 h -21.9 v 143.992" /><path
         id="path26"
         style="fill:#b21c28;fill-opacity:1;fill-rule:nonzero;stroke:none"
         d="m 2431.68,897.734 v 92.098 h -23.7 v 17.398 h 23.7 v 41.1 h 21.9 v -41.1 h 36.3 v -17.398 h -36.3 v -90 c 0,-14.398 4.2,-21.297 16.8,-21.297 9,0 17.1,4.5 19.5,6.305 l 8.1,-16.508 c -4.2,-2.691 -14.7,-8.695 -30.3,-8.695 -24,0 -36,14.097 -36,38.097" /><path
         id="path28"
         style="fill:#b21c28;fill-opacity:1;fill-rule:nonzero;stroke:none"
         d="m 2652.48,882.734 c 35.39,0 51.29,10.801 51.29,36 0,24 -12.9,39.297 -49.5,39.297 h -29.99 v -75.297 z m -0.91,94.496 c 30.6,0 43.8,11.098 43.8,34.5 0,22.2 -15,31.8 -43.2,31.8 h -27.89 v -66.3 z m -50.39,85.8 h 52.79 c 37.2,0 65.4,-13.8 65.4,-49.8 0,-23.398 -13.8,-38.398 -35.7,-44.101 v -0.594 c 24.6,-4.207 44.4,-21.601 44.4,-49.199 0,-40.801 -30.3,-56.098 -74.99,-56.098 h -51.9 v 199.792" /><path
         id="path30"
         style="fill:#b21c28;fill-opacity:1;fill-rule:nonzero;stroke:none"
         d="m 2769.18,1079.23 h 21.89 V 863.238 h -21.89 v 215.992" /><path
         id="path32"
         style="fill:#b21c28;fill-opacity:1;fill-rule:nonzero;stroke:none"
         d="m 2839.07,904.633 v 102.597 h 21.9 v -98.398 c 0,-18 6.3,-29.394 25.8,-29.394 21.9,0 38.4,22.199 41.39,26.394 v 101.398 h 21.9 V 893.535 c 0,-12.301 1.5,-24.601 2.7,-30.297 h -22.19 c -0.6,3.598 -1.81,14.102 -2.1,21.297 -6.6,-9 -21.9,-24.898 -46.8,-24.898 -30.6,0 -42.6,20.097 -42.6,44.996" /><path
         id="path34"
         style="fill:#b21c28;fill-opacity:1;fill-rule:nonzero;stroke:none"
         d="m 2986.97,873.133 9.6,16.805 c 5.4,-3.903 18.3,-11.7 35.7,-11.7 17.99,0 29.4,7.5 29.4,20.696 0,13.199 -10.81,18.902 -31.81,27.902 -22.49,9.598 -39.59,19.801 -39.59,44.398 0,22.2 16.8,39.596 45.59,39.596 23.71,0 38.11,-10.2 42.6,-13.799 l -10.79,-15.898 c -5.11,3.898 -15.91,10.801 -32.1,10.801 -15.31,0 -24,-7.5 -24,-19.801 0,-13.5 11.7,-19.199 27.6,-25.801 23.39,-9.898 44.69,-20.098 44.69,-44.398 0,-26.102 -19.8,-42.598 -51.3,-42.598 -20.69,0 -36.59,7.5 -45.59,13.797" /><path
         id="path36"
         style="fill:#b21c28;fill-opacity:1;fill-rule:nonzero;stroke:none"
         d="m 3109.37,873.133 9.6,16.805 c 5.4,-3.903 18.3,-11.7 35.69,-11.7 18,0 29.4,7.5 29.4,20.696 0,13.199 -10.8,18.902 -31.79,27.902 -22.5,9.598 -39.6,19.801 -39.6,44.398 0,22.2 16.79,39.596 45.59,39.596 23.7,0 38.1,-10.2 42.6,-13.799 l -10.8,-15.898 c -5.1,3.898 -15.9,10.801 -32.1,10.801 -15.29,0 -23.99,-7.5 -23.99,-19.801 0,-13.5 11.69,-19.199 27.59,-25.801 23.4,-9.898 44.7,-20.098 44.7,-44.398 0,-26.102 -19.8,-42.598 -51.3,-42.598 -20.7,0 -36.6,7.5 -45.59,13.797" /><path
         id="path38"
         style="fill:#b21c28;fill-opacity:1;fill-rule:nonzero;stroke:none"
         d="m 3342.45,934.938 c 0,30.894 -15.59,56.996 -45.59,56.996 -30,0 -42,-25.504 -42,-56.403 0,-30.898 13.5,-56.996 43.5,-56.996 29.99,0 44.09,25.5 44.09,56.403 z m -110.99,0 c 0,33.597 17.09,75.892 65.7,75.892 48.59,0 68.69,-41.701 68.69,-75.299 0,-33.597 -19.2,-75.894 -67.79,-75.894 -48.61,0 -66.6,41.699 -66.6,75.301" /><path
         id="path40"
         style="fill:#b21c28;fill-opacity:1;fill-rule:nonzero;stroke:none"
         d="m 3402.46,1007.23 h 21.9 v -20.699 c 12.9,16.199 29.1,24.299 46.8,24.299 30.3,0 42.3,-20.1 42.3,-44.998 V 863.238 h -21.91 v 98.399 c 0,17.996 -6.3,29.394 -25.5,29.394 -16.19,0 -31.49,-12.301 -41.69,-26.398 V 863.238 h -21.9 v 143.992" /><path
         id="path42"
         style="fill:#0e1531;fill-opacity:1;fill-rule:nonzero;stroke:none"
         d="m 1771.55,597.945 c 0,58.075 -29.91,108.465 -91.83,108.465 -61.92,0 -93.54,-49.101 -93.54,-107.187 0,-58.094 30.76,-108.891 92.26,-108.891 62.35,0 93.11,49.938 93.11,107.613 z M 1661.36,453.164 c -79.88,7.266 -125.99,72.613 -125.99,144.781 0,77.723 51.25,147.774 143.07,147.774 92.25,0 143.92,-69.192 143.92,-146.496 0,-66.61 -37.58,-128.129 -105.91,-143.91 18.36,-23.926 34.59,-34.61 62.77,-34.61 16.24,0 28.62,7.695 34.18,11.992 l 16.23,-32.91 c -8.55,-7.246 -26.92,-15.801 -52.11,-15.801 -41.42,0 -75.17,15.801 -116.16,69.18" /><path
         id="path44"
         style="fill:#0e1531;fill-opacity:1;fill-rule:nonzero;stroke:none"
         d="m 1887.7,516.789 v 146.078 h 45.27 V 526.203 c 0,-23.058 8.1,-36.301 31.6,-36.301 26.06,0 45.69,25.637 49.97,31.149 v 141.816 h 45.26 V 508.688 c 0,-22.633 2.56,-41.852 5.12,-52.516 h -45.26 c -1.28,5.117 -3.41,19.629 -3.84,29.023 -10.25,-13.672 -31.6,-34.179 -66.64,-34.179 -44.83,0 -61.48,29.062 -61.48,65.773" /><path
         id="path46"
         style="fill:#0e1531;fill-opacity:1;fill-rule:nonzero;stroke:none"
         d="m 2238.14,509.113 v 41.426 h -8.11 c -38,0 -64.9,-10.68 -64.9,-39.723 0,-17.925 14.52,-24.761 27.33,-24.761 20.07,0 35.02,9.843 45.68,23.058 z m -118.29,-0.836 c 0,53.789 57.66,72.149 110.18,72.149 h 8.11 v 14.949 c 0,24.777 -10.66,35.449 -37.14,35.449 -20.93,0 -38,-8.105 -52.96,-20.926 l -21.34,29.043 c 18.35,16.668 44.4,29.043 78.99,29.043 51.26,0 77.74,-21.789 77.74,-73.046 v -84.122 c 0,-24.332 2.57,-43.121 5.12,-54.644 h -44.85 c -1.27,5.547 -2.99,17.07 -3.41,23.476 -11.96,-15.39 -33.31,-28.632 -59.78,-28.632 -34.6,0 -60.66,21.367 -60.66,57.261" /><path
         id="path48"
         style="fill:#0e1531;fill-opacity:1;fill-rule:nonzero;stroke:none"
         d="m 2355.14,662.867 h 44.84 v -27.773 c 16.67,20.066 38.86,32.89 66.19,32.89 44.44,0 61.51,-29.043 61.51,-65.785 V 456.172 h -45.28 v 136.652 c 0,23.047 -8.11,36.293 -31.6,36.293 -20.49,0 -38.86,-15.812 -49.97,-31.172 V 456.172 h -45.69 v 206.695" /><path
         id="path50"
         style="fill:#0e1531;fill-opacity:1;fill-rule:nonzero;stroke:none"
         d="m 2611.54,511.242 v 117.024 h -33.3 v 34.601 h 33.3 v 59.356 h 45.3 v -59.356 h 49.96 v -34.601 h -49.96 V 518.512 c 0,-20.504 5.53,-29.899 22.18,-29.899 12.41,0 23.51,5.996 27.34,8.535 l 12.82,-34.14 c -7.69,-4.297 -23.92,-11.992 -48.25,-11.992 -42.29,0 -59.39,23.086 -59.39,60.226" /><path
         id="path52"
         style="fill:#0e1531;fill-opacity:1;fill-rule:nonzero;stroke:none"
         d="m 2763.81,516.789 v 146.078 h 45.29 V 526.203 c 0,-23.058 8.11,-36.301 31.6,-36.301 26.04,0 45.7,25.637 49.96,31.149 v 141.816 h 45.28 V 508.688 c 0,-22.633 2.56,-41.852 5.11,-52.516 h -45.26 c -1.29,5.117 -3.43,19.629 -3.85,29.023 -10.24,-13.672 -31.61,-34.179 -66.63,-34.179 -44.83,0 -61.5,29.062 -61.5,65.773" /><path
         id="path54"
         style="fill:#0e1531;fill-opacity:1;fill-rule:nonzero;stroke:none"
         d="m 3009.6,662.867 h 44.85 v -27.336 c 9.81,11.953 28.61,32.453 62.77,32.453 29.47,0 45.7,-14.093 52.96,-33.75 16.67,18.805 36.3,33.75 66.19,33.75 42.71,0 58.51,-28.617 58.51,-65.785 V 456.172 h -45.26 v 136.652 c 0,22.629 -6.41,36.293 -28.61,36.293 -20.94,0 -37.16,-16.222 -46.14,-27.336 V 456.172 h -45.25 v 136.652 c 0,23.047 -8.13,36.293 -28.18,36.293 -24.79,0 -41.86,-25.195 -46.15,-30.746 V 456.172 h -45.69 v 206.695" /><path
         id="path56"
         style="fill:#0e1531;fill-opacity:1;fill-rule:nonzero;stroke:none"
         d="m 3485.64,740.59 h 46.57 l 63.16,-183.641 c 7.29,-21.797 12.42,-38.871 15.82,-50.414 h 0.86 c 3.4,11.117 8.56,28.617 16.21,50.414 l 64.06,183.641 h 46.57 l 38.86,-284.418 h -49.12 l -20.91,164.398 c -2.56,20.508 -4.28,33.743 -4.71,40.586 h -0.84 c -2.15,-7.707 -5.98,-21.375 -12.38,-40.144 l -56.82,-164.84 H 3586 l -57.66,164.84 c -5.98,18.355 -10.25,32.437 -12.81,40.144 h -0.86 c -0.43,-8.117 -1.68,-22.215 -3.83,-41.445 l -20.08,-163.539 h -43.98 l 38.86,284.418" /><path
         id="path58"
         style="fill:#0e1531;fill-opacity:1;fill-rule:nonzero;stroke:none"
         d="m 3950.29,509.113 v 41.426 h -8.14 c -37.99,0 -64.9,-10.68 -64.9,-39.723 0,-17.925 14.51,-24.761 27.32,-24.761 20.06,0 35.02,9.843 45.72,23.058 z m -118.32,-0.836 c 0,53.789 57.66,72.149 110.18,72.149 h 8.14 v 14.949 c 0,24.777 -10.7,35.449 -37.16,35.449 -20.94,0 -38.01,-8.105 -52.95,-20.926 l -21.37,29.043 c 18.36,16.668 44.41,29.043 79.02,29.043 51.25,0 77.74,-21.789 77.74,-73.046 v -84.122 c 0,-24.332 2.54,-43.121 5.09,-54.644 h -44.82 c -1.29,5.547 -3.01,17.07 -3.42,23.476 -11.97,-15.39 -33.34,-28.632 -59.82,-28.632 -34.57,0 -60.63,21.367 -60.63,57.261" /><path
         id="path60"
         style="fill:#0e1531;fill-opacity:1;fill-rule:nonzero;stroke:none"
         d="m 4078.34,511.242 v 117.024 h -33.32 v 34.601 h 33.32 v 59.356 h 45.23 v -59.356 h 49.98 v -34.601 h -49.98 V 518.512 c 0,-20.504 5.57,-29.899 22.23,-29.899 12.38,0 23.48,5.996 27.34,8.535 l 12.82,-34.14 c -7.7,-4.297 -23.91,-11.992 -48.26,-11.992 -42.29,0 -59.36,23.086 -59.36,60.226" /><path
         id="path62"
         style="fill:#0e1531;fill-opacity:1;fill-rule:nonzero;stroke:none"
         d="m 4253.44,511.242 v 117.024 h -33.3 v 34.601 h 33.3 v 59.356 h 45.27 v -59.356 h 49.96 v -34.601 h -49.96 V 518.512 c 0,-20.504 5.53,-29.899 22.21,-29.899 12.38,0 23.47,5.996 27.3,8.535 l 12.83,-34.14 c -7.67,-4.297 -23.92,-11.992 -48.26,-11.992 -42.3,0 -59.35,23.086 -59.35,60.226" /><path
         id="path64"
         style="fill:#0e1531;fill-opacity:1;fill-rule:nonzero;stroke:none"
         d="m 4530.84,585.133 c -0.86,26.062 -11.95,48.262 -42.3,48.262 -27.74,0 -43.13,-19.239 -48.25,-48.262 z M 4391.6,560.777 c 0,63.219 41.43,107.207 97.79,107.207 55.51,0 86.29,-36.718 86.29,-97.382 0,-5.547 -0.43,-11.954 -0.86,-17.911 h -134.96 c 2.11,-36.742 18.36,-66.207 58.52,-66.207 28.18,0 45.68,11.094 55.08,16.25 l 15.8,-31.211 c -11.96,-7.265 -34.16,-20.507 -74.32,-20.507 -67.46,0 -103.34,46.132 -103.34,109.761" /><path
         id="path66"
         style="fill:#0e1531;fill-opacity:1;fill-rule:nonzero;stroke:none"
         d="m 4637.87,662.867 h 45.68 v -29.894 c 8.54,14.511 26.06,35.011 53.38,35.011 14.11,0 21.35,-2.992 25.2,-5.117 l -11.09,-40.597 c -3.01,1.726 -8.56,4.296 -20.08,4.296 -27.76,0 -43.56,-28.621 -47.41,-36.296 V 456.172 h -45.68 v 206.695" /><path
         id="path68"
         style="fill:#b21c28;fill-opacity:1;fill-rule:nonzero;stroke:none"
         d="M 4900.72,733.332 H 4949 V 448.906 h -48.28 v 284.426" /><path
         id="path70"
         style="fill:#b21c28;fill-opacity:1;fill-rule:nonzero;stroke:none"
         d="m 5032.32,655.609 h 44.85 v -27.773 c 16.64,20.07 38.87,32.883 66.21,32.883 44.41,0 61.48,-29.043 61.48,-65.781 V 448.906 h -45.27 V 585.57 c 0,23.039 -8.13,36.289 -31.58,36.289 -20.53,0 -38.89,-15.808 -49.98,-31.171 V 448.906 h -45.71 v 206.703" /><path
         id="path72"
         style="fill:#b21c28;fill-opacity:1;fill-rule:nonzero;stroke:none"
         d="m 5261.31,463.418 16.68,32.48 c 7.67,-5.566 27.32,-17.109 50.82,-17.109 23.48,0 37.58,8.555 37.58,23.945 0,16.207 -19.22,21.754 -49.1,35.422 -30.34,13.672 -50.83,29.028 -50.83,61.918 0,35.867 27.74,60.645 71.72,60.645 35.04,0 55.98,-12.813 64.07,-17.934 l -17.93,-31.59 c -7.66,5.118 -23.48,14.082 -44.85,14.082 -20.9,0 -31.17,-8.535 -31.17,-22.625 0,-16.672 17.95,-22.226 41.02,-31.601 33.3,-13.672 60.23,-28.637 60.23,-63.637 0,-40.578 -30.35,-64.055 -78.61,-64.055 -33.73,0 -56.8,11.094 -69.63,20.059" /><path
         id="path74"
         style="fill:#b21c28;fill-opacity:1;fill-rule:nonzero;stroke:none"
         d="m 5483.34,503.984 v 117.028 h -33.32 v 34.597 h 33.32 v 59.356 h 45.27 v -59.356 h 49.96 v -34.597 h -49.96 v -109.77 c 0,-20.5 5.55,-29.875 22.21,-29.875 12.38,0 23.5,5.977 27.32,8.535 l 12.84,-34.179 c -7.72,-4.258 -23.93,-11.973 -48.27,-11.973 -42.3,0 -59.37,23.086 -59.37,60.234" /><path
         id="path76"
         style="fill:#b21c28;fill-opacity:1;fill-rule:nonzero;stroke:none"
         d="m 5643.42,655.609 h 45.7 V 448.906 h -45.7 z m -6.84,61.055 c 0,15.789 12.81,29.055 29.46,29.055 17.1,0 29.9,-13.266 29.9,-29.055 0,-15.801 -12.8,-29.043 -29.9,-29.043 -16.65,0 -29.46,13.242 -29.46,29.043" /><path
         id="path78"
         style="fill:#b21c28;fill-opacity:1;fill-rule:nonzero;stroke:none"
         d="m 5775.64,503.984 v 117.028 h -33.28 v 34.597 h 33.28 v 59.356 h 45.28 v -59.356 h 49.98 v -34.597 h -49.98 v -109.77 c 0,-20.5 5.54,-29.875 22.22,-29.875 12.39,0 23.48,5.977 27.31,8.535 l 12.83,-34.179 c -7.69,-4.258 -23.92,-11.973 -48.26,-11.973 -42.29,0 -59.38,23.086 -59.38,60.234" /><path
         id="path80"
         style="fill:#b21c28;fill-opacity:1;fill-rule:nonzero;stroke:none"
         d="m 5927.91,509.527 v 146.082 h 45.27 V 518.941 c 0,-23.043 8.13,-36.304 31.61,-36.304 26.05,0 45.7,25.64 49.98,31.144 v 141.828 h 45.25 V 501.445 c 0,-22.656 2.58,-41.875 5.14,-52.539 h -45.28 c -1.27,5.098 -3.42,19.649 -3.84,29.024 -10.24,-13.672 -31.61,-34.18 -66.61,-34.18 -44.84,0 -61.52,29.063 -61.52,65.777" /><path
         id="path82"
         style="fill:#b21c28;fill-opacity:1;fill-rule:nonzero;stroke:none"
         d="m 6185.61,503.984 v 117.028 h -33.32 v 34.597 h 33.32 v 59.356 h 45.27 v -59.356 h 49.98 v -34.597 h -49.98 v -109.77 c 0,-20.5 5.57,-29.875 22.21,-29.875 12.4,0 23.49,5.977 27.32,8.535 l 12.81,-34.179 c -7.67,-4.258 -23.9,-11.973 -48.24,-11.973 -42.28,0 -59.37,23.086 -59.37,60.234" /><path
         id="path84"
         style="fill:#b21c28;fill-opacity:1;fill-rule:nonzero;stroke:none"
         d="m 6462.99,577.867 c -0.84,26.055 -11.94,48.25 -42.27,48.25 -27.77,0 -43.12,-19.219 -48.24,-48.25 z m -139.2,-24.336 c 0,63.211 41.42,107.188 97.79,107.188 55.53,0 86.27,-36.723 86.27,-97.364 0,-5.546 -0.43,-11.953 -0.84,-17.929 h -134.96 c 2.13,-36.738 18.36,-66.207 58.52,-66.207 28.18,0 45.68,11.113 55.07,16.25 l 15.81,-31.211 c -11.96,-7.246 -34.16,-20.508 -74.32,-20.508 -67.46,0 -103.34,46.152 -103.34,109.781" /><path
         id="path86"
         style="fill:#77828a;fill-opacity:1;fill-rule:nonzero;stroke:none"
         d="m 3372.29,231.707 v 65.703 h 18.01 v -63.953 c 0,-19.746 7.69,-29.18 25.86,-29.18 17.21,0 24.89,10.848 24.89,27.43 v 65.703 h 16.73 v -64.258 c 0,-27.586 -13.72,-43.875 -42.11,-43.875 -29.99,0 -43.38,15.957 -43.38,42.43" /><path
         id="path88"
         style="fill:#77828a;fill-opacity:1;fill-rule:nonzero;stroke:none"
         d="m 3506.79,297.41 h 18.01 l 43.56,-62.508 c 5.75,-8.281 9.26,-14.511 10.69,-16.914 h 0.34 c -0.18,1.758 -0.67,7.676 -0.67,15.645 v 63.777 h 16.43 V 191.191 h -16.59 l -46.23,66.543 c -4.65,6.356 -7.84,12.246 -9.43,14.825 h -0.31 c 0.15,-1.602 0.62,-7.024 0.62,-12.93 v -68.438 h -16.42 V 297.41" /><path
         id="path90"
         style="fill:#77828a;fill-opacity:1;fill-rule:nonzero;stroke:none"
         d="m 3645.23,297.41 h 18.03 V 191.191 h -18.03 V 297.41" /><path
         id="path92"
         style="fill:#77828a;fill-opacity:1;fill-rule:nonzero;stroke:none"
         d="m 3701.38,297.41 h 19.42 l 24.57,-67.918 c 2.88,-8.301 4.95,-15.625 5.92,-18.047 h 0.31 c 0.78,2.559 2.87,9.903 5.73,18.047 l 23.77,67.918 h 18.01 L 3759.6,191.191 h -17.25 l -40.97,106.219" /><path
         id="path94"
         style="fill:#77828a;fill-opacity:1;fill-rule:nonzero;stroke:none"
         d="m 3836.8,297.41 h 58.21 v -14.969 h -40.33 v -28.398 h 35.57 v -14.336 h -35.57 v -33.516 h 41.46 v -15 H 3836.8 V 297.41" /><path
         id="path96"
         style="fill:#77828a;fill-opacity:1;fill-rule:nonzero;stroke:none"
         d="m 3972.08,250.684 c 13.69,0 19.93,5.906 19.93,16.464 0,10.508 -6.55,16.075 -20.89,16.075 h -12.96 v -32.539 z m -31.91,46.726 h 32.54 c 23.59,0 37.31,-10.515 37.31,-29.5 0,-17.558 -12.29,-26.484 -26.96,-28.203 v -0.312 c 2.56,-1.758 5.91,-5.43 11.81,-14.375 l 23.28,-33.829 h -20.26 l -20.25,30.157 c -10.22,14.687 -11.96,15.957 -18.01,15.957 h -1.47 v -46.114 h -17.99 V 297.41" /><path
         id="path98"
         style="fill:#77828a;fill-opacity:1;fill-rule:nonzero;stroke:none"
         d="m 4049.95,199.988 8.15,12.59 c 2.38,-1.914 10.19,-8.613 23.43,-8.613 11.82,0 18.97,6.855 18.97,14.824 0,11.016 -11.63,14.844 -23.93,21.074 -13.05,6.367 -23.76,13.867 -23.76,31.094 0,17.891 15.01,28.398 32.85,28.398 16.64,0 25.7,-5.761 29.68,-8.808 l -7.8,-12.734 c -3.67,2.566 -11.15,6.855 -21.23,6.855 -9.58,0 -16.09,-4.914 -16.09,-13.398 0,-9.239 8.46,-12.911 19.27,-17.852 14.07,-6.523 28.71,-13.711 28.71,-33.828 0,-18.164 -14.33,-30.313 -36.67,-30.313 -16.73,0 -27.45,6.875 -31.58,10.711" /><path
         id="path100"
         style="fill:#77828a;fill-opacity:1;fill-rule:nonzero;stroke:none"
         d="m 4161.62,297.41 h 18.03 V 191.191 h -18.03 V 297.41" /><path
         id="path102"
         style="fill:#77828a;fill-opacity:1;fill-rule:nonzero;stroke:none"
         d="m 4247.53,282.441 h -29.66 v 14.969 h 77.35 v -14.969 h -29.49 v -91.25 h -18.2 v 91.25" /><path
         id="path104"
         style="fill:#77828a;fill-opacity:1;fill-rule:nonzero;stroke:none"
         d="m 4362.51,231.395 -35.41,66.015 h 20.09 l 25.05,-49.258 h 0.15 l 25.05,49.258 h 17.53 l -34.42,-66.015 v -40.204 h -18.04 v 40.204" /><path
         id="path106"
         style="fill:#77828a;fill-opacity:1;fill-rule:nonzero;stroke:none"
         d="m 4590.87,244.18 c 0,21.679 -11.16,40.488 -34.32,40.488 -23.08,0 -34.92,-18.359 -34.92,-40.02 0,-21.699 11.49,-40.683 34.47,-40.683 23.29,0 34.77,18.672 34.77,40.215 z m -88.2,0 c 0,28.992 19.14,55.175 53.43,55.175 34.48,0 53.76,-25.851 53.76,-54.707 0,-29.035 -18.99,-55.371 -53.31,-55.371 -34.25,0 -53.88,26.024 -53.88,54.903" /><path
         id="path108"
         style="fill:#77828a;fill-opacity:1;fill-rule:nonzero;stroke:none"
         d="m 4653.55,297.41 h 58.53 v -14.969 h -40.51 V 252.91 h 35.6 v -14.492 h -35.6 v -47.227 h -18.02 V 297.41" /><path
         id="path110"
         style="fill:#77828a;fill-opacity:1;fill-rule:nonzero;stroke:none"
         d="m 4842.22,205.41 c 15.45,0 23.12,4.766 23.12,16.406 0,11.18 -6.23,17.579 -22.17,17.579 h -14.19 V 205.41 Z m -0.95,47.5 c 13.83,0 19.92,4.981 19.92,15.664 0,10.215 -6.7,14.649 -19.61,14.649 h -12.6 V 252.91 Z m -29.99,44.5 h 32.05 c 19.8,0 35.89,-6.863 35.89,-26.453 0,-13.223 -7.33,-20.898 -18.98,-23.926 v -0.312 c 12.94,-2.071 23.43,-10.879 23.43,-25.86 0,-21.691 -16.73,-29.668 -40.81,-29.668 h -31.58 V 297.41" /><path
         id="path112"
         style="fill:#77828a;fill-opacity:1;fill-rule:nonzero;stroke:none"
         d="m 4959.26,250.684 c 13.72,0 19.96,5.906 19.96,16.464 0,10.508 -6.55,16.075 -20.9,16.075 h -12.93 v -32.539 z m -31.9,46.726 h 32.56 c 23.58,0 37.34,-10.515 37.34,-29.5 0,-17.558 -12.3,-26.484 -26.99,-28.203 v -0.312 c 2.55,-1.758 5.9,-5.43 11.8,-14.375 l 23.29,-33.829 h -20.24 l -20.25,30.157 c -10.21,14.687 -11.98,15.957 -18.03,15.957 h -1.45 v -46.114 h -18.03 V 297.41" /><path
         id="path114"
         style="fill:#77828a;fill-opacity:1;fill-rule:nonzero;stroke:none"
         d="m 5043.93,297.41 h 18.01 V 191.191 h -18.01 V 297.41" /><path
         id="path116"
         style="fill:#77828a;fill-opacity:1;fill-rule:nonzero;stroke:none"
         d="m 5129.8,282.441 h -29.62 v 14.969 h 77.35 v -14.969 h -29.51 v -91.25 h -18.22 v 91.25" /><path
         id="path118"
         style="fill:#77828a;fill-opacity:1;fill-rule:nonzero;stroke:none"
         d="m 5215.76,297.41 h 18 V 191.191 h -18 V 297.41" /><path
         id="path120"
         style="fill:#77828a;fill-opacity:1;fill-rule:nonzero;stroke:none"
         d="m 5275.91,199.988 8.15,12.59 c 2.39,-1.914 10.22,-8.613 23.47,-8.613 11.79,0 18.95,6.855 18.95,14.824 0,11.016 -11.62,14.844 -23.9,21.074 -13.1,6.367 -23.77,13.867 -23.77,31.094 0,17.891 14.96,28.398 32.85,28.398 16.62,0 25.68,-5.761 29.68,-8.808 l -7.81,-12.734 c -3.72,2.566 -11.2,6.855 -21.26,6.855 -9.54,0 -16.08,-4.914 -16.08,-13.398 0,-9.239 8.44,-12.911 19.31,-17.852 14,-6.523 28.7,-13.711 28.7,-33.828 0,-18.164 -14.39,-30.313 -36.67,-30.313 -16.76,0 -27.47,6.875 -31.62,10.711" /><path
         id="path122"
         style="fill:#77828a;fill-opacity:1;fill-rule:nonzero;stroke:none"
         d="m 5387.18,297.41 h 18.04 v -43.191 h 53.1 v 43.191 h 18.07 V 191.191 h -18.07 v 48.204 h -53.1 v -48.204 h -18.04 V 297.41" /><path
         id="path124"
         style="fill:#77828a;fill-opacity:1;fill-rule:nonzero;stroke:none"
         d="m 3229.44,296.863 h 58.22 v -14.961 h -40.36 v -28.406 h 35.55 v -14.375 h -35.55 v -33.496 h 41.49 v -14.961 h -59.35 v 106.199" /><path
         id="path126"
         style="fill:#77828a;fill-opacity:1;fill-rule:nonzero;stroke:none"
         d="m 3008.19,281.863 h -29.65 v 15 h 77.35 v -15 h -29.5 v -91.218 h -18.2 v 91.218" /><path
         id="path128"
         style="fill:#77828a;fill-opacity:1;fill-rule:nonzero;stroke:none"
         d="m 3092.1,296.863 h 18.03 v -43.211 h 53.1 v 43.211 h 18.05 V 190.664 h -18.05 v 48.184 h -53.1 v -48.184 h -18.03 v 106.199" /><path
         id="path130"
         style="fill:#77828a;fill-opacity:1;fill-rule:nonzero;stroke:none"
         d="m 5575.85,244.492 c 0,28.836 18.99,54.863 53.58,54.863 13.74,0 22.82,-3.039 30.92,-8.32 l -8.42,-13.222 c -6.07,4.011 -13.08,6.542 -22.97,6.542 -22.34,0 -34.12,-18.203 -34.12,-39.238 0,-21.699 11.31,-40.683 34.59,-40.683 11.5,0 19.14,3.847 24.89,8.457 l 7.81,-12.629 c -5.6,-5.086 -17.84,-10.985 -33.03,-10.985 -34.92,0 -53.25,26.493 -53.25,55.215" /><path
         id="path132"
         style="fill:#77828a;fill-opacity:1;fill-rule:nonzero;stroke:none"
         d="m 5780.46,244.18 c 0,21.679 -11.14,40.488 -34.25,40.488 -23.15,0 -34.96,-18.359 -34.96,-40.02 0,-21.699 11.49,-40.683 34.47,-40.683 23.28,0 34.74,18.672 34.74,40.215 z m -88.17,0 c 0,28.992 19.16,55.175 53.43,55.175 34.43,0 53.75,-25.851 53.75,-54.707 0,-29.035 -19.01,-55.371 -53.26,-55.371 -34.3,0 -53.92,26.024 -53.92,54.903" /><path
         id="path134"
         style="fill:#77828a;fill-opacity:1;fill-rule:nonzero;stroke:none"
         d="m 5843.24,297.41 h 18 v -91.531 h 40.53 v -14.688 h -58.53 V 297.41" /><path
         id="path136"
         style="fill:#77828a;fill-opacity:1;fill-rule:nonzero;stroke:none"
         d="m 5938.44,231.707 v 65.703 h 18.03 v -63.953 c 0,-19.746 7.67,-29.18 25.87,-29.18 17.2,0 24.88,10.848 24.88,27.43 v 65.703 h 16.74 v -64.258 c 0,-27.586 -13.7,-43.875 -42.1,-43.875 -30.02,0 -43.42,15.957 -43.42,42.43" /><path
         id="path138"
         style="fill:#77828a;fill-opacity:1;fill-rule:nonzero;stroke:none"
         d="m 6080.33,297.41 h 17.38 l 23.6,-68.543 c 2.71,-8.183 4.63,-14.531 5.89,-18.828 h 0.35 c 1.27,4.121 3.2,10.645 6.04,18.828 l 23.93,68.543 h 17.38 l 14.53,-106.219 h -18.35 l -7.83,61.446 c -0.94,7.636 -1.56,12.586 -1.76,15.156 h -0.31 c -0.78,-2.902 -2.22,-7.988 -4.6,-15.02 l -21.23,-61.582 h -17.54 l -21.53,61.582 c -2.24,6.856 -3.84,12.118 -4.8,15.02 h -0.33 c -0.15,-3.059 -0.62,-8.34 -1.43,-15.508 l -7.46,-61.094 h -16.45 l 14.52,106.219" /><path
         id="path140"
         style="fill:#77828a;fill-opacity:1;fill-rule:nonzero;stroke:none"
         d="m 6263.98,205.41 c 15.48,0 23.11,4.766 23.11,16.406 0,11.18 -6.21,17.579 -22.17,17.579 h -14.18 V 205.41 Z m -0.97,47.5 c 13.89,0 19.96,4.981 19.96,15.664 0,10.215 -6.71,14.649 -19.63,14.649 h -12.6 V 252.91 Z m -29.96,44.5 h 32.03 c 19.79,0 35.93,-6.863 35.93,-26.453 0,-13.223 -7.37,-20.898 -19,-23.926 v -0.312 c 12.91,-2.071 23.44,-10.879 23.44,-25.86 0,-21.691 -16.74,-29.668 -40.8,-29.668 h -31.6 V 297.41" /><path
         id="path142"
         style="fill:#77828a;fill-opacity:1;fill-rule:nonzero;stroke:none"
         d="m 6349.79,297.41 h 18.05 V 191.191 h -18.05 V 297.41" /><path
         id="path144"
         style="fill:#77828a;fill-opacity:1;fill-rule:nonzero;stroke:none"
         d="m 6472,228.691 -10.98,30.293 c -3.21,8.926 -4.77,14.696 -6.08,18.36 h -0.31 c -1.11,-3.84 -2.88,-10.059 -5.91,-18.36 l -11.16,-30.293 z m -25.36,68.719 h 17.39 l 41.33,-106.219 h -19.62 l -8.3,22.813 h -45.15 l -8.15,-22.813 h -18.02 l 40.52,106.219" /><path
         id="path146"
         style="fill:#2f71a8;fill-opacity:1;fill-rule:nonzero;stroke:none"
         d="m 634.055,943.473 4.605,-1.535 c -0.387,0.117 -0.769,0.222 -1.172,0.332 -0.386,0.128 -0.75,0.253 -1.16,0.363 -0.371,0.137 -0.754,0.254 -1.152,0.39 -0.391,0.125 -0.789,0.235 -1.184,0.372 l 0.063,0.078" /><path
         id="path148"
         style="fill:#0e1531;fill-opacity:1;fill-rule:nonzero;stroke:none"
         d="m 621.746,1176.12 c 25.363,0.46 50.512,-2.12 74.465,-7.06 23.848,-4.94 46.836,-12.34 67.891,-21.68 21.164,-9.42 40.644,-20.92 57.285,-34.08 16.941,-13.4 31.113,-28.69 41.211,-45.44 6.203,-10.29 10.507,-20.41 13.3,-30.41 2.832,-10.21 4.114,-20.32 4.239,-30.4 0.136,-10.277 -0.938,-20.57 -2.793,-30.886 -1.895,-10.555 -4.61,-21.148 -7.656,-31.883 -0.508,-1.758 -1.028,-3.523 -1.536,-5.285 -0.535,-1.766 -1.074,-3.543 -1.597,-5.32 -0.528,-1.785 -1.059,-3.582 -1.606,-5.379 -0.562,-1.817 -1.101,-3.613 -1.648,-5.43 -0.449,-1.535 -0.899,-3.047 -1.387,-4.57 -0.449,-1.516 -0.918,-3.039 -1.379,-4.602 -0.465,-1.543 -0.933,-3.105 -1.394,-4.66 -0.457,-1.551 -0.899,-3.125 -1.36,-4.695 -0.984,-3.379 -2,-6.809 -2.996,-10.223 -1.023,-3.418 -2.051,-6.855 -3.055,-10.285 -1.027,-3.426 -2.035,-6.855 -3.046,-10.203 -0.996,-3.41 -1.993,-6.738 -2.981,-10.012 l -27.976,9.192 c -1.036,0.339 -2.09,0.664 -3.164,1.004 -1.067,0.351 -2.141,0.714 -3.254,1.066 -1.094,0.359 -2.227,0.73 -3.368,1.094 -1.117,0.371 -2.257,0.75 -3.418,1.14 l -38.125,12.461 c 1.211,3.196 2.442,6.457 3.68,9.739 1.231,3.261 2.473,6.55 3.711,9.871 1.25,3.3 2.512,6.601 3.762,9.921 1.238,3.321 2.488,6.641 3.726,9.93 0.618,1.574 1.223,3.137 1.797,4.68 0.617,1.57 1.203,3.113 1.809,4.656 0.597,1.543 1.203,3.051 1.808,4.594 0.586,1.543 1.18,3.035 1.786,4.558 4.328,11.141 8.507,21.875 11.992,32.278 3.39,10.176 6.113,20.047 7.683,29.699 1.516,9.44 1.907,18.68 0.676,27.79 -1.211,8.96 -3.973,17.81 -8.816,26.64 -6.153,11.28 -15.254,21.67 -26.391,30.82 -10.984,9.04 -24.043,16.95 -38.379,23.42 -14.246,6.42 -29.91,11.46 -46.148,14.76 -16.313,3.28 -33.371,4.87 -50.461,4.32 -17.305,-0.55 -33.153,-3.25 -47.012,-7.7 -14.16,-4.53 -26.328,-10.9 -35.906,-18.71 -9.848,-7.98 -16.985,-17.52 -20.781,-28.13 -3.86,-10.87 -4.211,-22.88 -0.278,-35.53 3.164,-10.11 8.782,-19.95 16.34,-29.59 7.656,-9.79 17.317,-19.371 28.391,-28.887 11.187,-9.617 23.816,-19.129 37.343,-28.687 13.633,-9.68 28.153,-19.387 43.036,-29.336 1.511,-0.996 3.039,-1.992 4.543,-3.02 1.504,-1.015 3.035,-2.019 4.531,-3.027 1.512,-1.004 3.023,-2.039 4.539,-3.047 1.504,-1.023 3.039,-2.059 4.543,-3.074 l -13.086,4.285 c -1.672,0.566 -3.488,1.16 -5.422,1.824 -1.934,0.656 -4.012,1.328 -6.191,2.063 -2.207,0.703 -4.524,1.472 -6.934,2.265 -2.43,0.774 -4.98,1.59 -7.629,2.414 l -4.605,1.524 c -3.157,0.976 -6.446,1.972 -9.844,3.015 -3.457,1.047 -6.984,2.149 -10.664,3.243 -3.684,1.14 -7.481,2.277 -11.457,3.476 -3.953,1.192 -8.035,2.41 -12.293,3.66 -17.188,5 -31.445,9.055 -43.176,12.297 -11.766,3.235 -20.996,5.676 -28.113,7.492 -7.09,1.836 -12.102,3.035 -15.41,3.797 -3.282,0.762 -4.883,1.094 -5.168,1.153 -5.442,5.585 -10.528,11.25 -15.196,17.031 -4.636,5.722 -8.836,11.57 -12.566,17.509 -3.691,5.88 -6.926,11.9 -9.594,18.02 -2.633,6.07 -4.761,12.24 -6.297,18.54 -4.812,19.89 -2.785,38.54 4.668,55.22 7.168,16.04 19.383,30.24 35.442,41.98 15.496,11.34 34.644,20.39 56.465,26.68 21.199,6.11 45.105,9.66 70.894,10.12" /><path
         id="path150"
         style="fill:#b21c28;fill-opacity:1;fill-rule:nonzero;stroke:none"
         d="m 997.781,1007.11 c 20.939,1.93 42.809,0.76 64.739,-2.99 21.77,-3.76 43.85,-10.112 65.36,-18.675 21.6,-8.578 42.84,-19.445 62.82,-32.265 20.24,-12.989 39.42,-28.117 56.51,-45.039 1.76,-1.77 3.54,-3.575 5.3,-5.403 1.75,-1.797 3.48,-3.64 5.18,-5.508 1.71,-1.875 3.38,-3.75 5.05,-5.664 1.65,-1.914 3.29,-3.867 4.9,-5.789 1.64,-1.972 3.2,-3.937 4.73,-5.89 1.53,-1.981 3.02,-3.946 4.48,-5.93 1.46,-1.98 2.88,-3.973 4.28,-5.934 1.36,-2.011 2.72,-3.996 4.04,-5.996 12.78,-19.629 21.6,-39.375 26.39,-58.496 4.93,-19.765 5.55,-38.879 1.7,-56.41 -3.93,-18.152 -12.7,-34.527 -26.28,-48.047 -14.01,-13.914 -33.11,-24.676 -57.2,-31.011 -16.26,-4.27 -33.45,-6.274 -51.3,-6.446 -18.02,-0.176 -36.62,1.492 -55.59,4.492 -19.06,3.008 -38.43,7.371 -57.91,12.567 -19.5,5.176 -39.08,11.164 -58.57,17.433 -3.15,1.012 -6.3,2.047 -9.465,3.075 -3.144,1.035 -6.281,2.058 -9.433,3.097 -3.157,1.043 -6.313,2.078 -9.453,3.114 -3.149,1.046 -6.289,2.089 -9.454,3.136 -2.609,0.86 -5.226,1.739 -7.832,2.617 -2.597,0.86 -5.226,1.739 -7.843,2.594 -2.61,0.871 -5.227,1.731 -7.852,2.59 -2.598,0.867 -5.223,1.719 -7.832,2.57 -11.621,3.75 -23.176,7.508 -34.426,11.192 -11.265,3.679 -22.261,7.265 -32.781,10.73 -10.508,3.449 -20.555,6.75 -29.91,9.832 -9.367,3.078 -18.027,5.942 -25.813,8.528 -1.218,0.382 -2.414,0.781 -3.582,1.171 -1.156,0.372 -2.316,0.754 -3.429,1.125 -1.145,0.36 -2.235,0.731 -3.34,1.094 -1.082,0.352 -2.141,0.703 -3.184,1.043 l -73.144,24.297 -20.469,6.828 c -2.859,0.938 -5.801,1.895 -8.816,2.879 -2.993,0.977 -6.086,2.012 -9.219,3.035 -3.125,1.039 -6.313,2.082 -9.555,3.157 -3.277,1.066 -6.558,2.136 -9.898,3.234 -5.012,1.629 -10.117,3.301 -15.325,5.019 -5.203,1.688 -10.488,3.426 -15.859,5.164 -5.344,1.778 -10.793,3.547 -16.269,5.344 -5.497,1.785 -11.036,3.582 -16.614,5.418 -2.644,0.852 -5.32,1.707 -7.984,2.578 -2.649,0.871 -5.324,1.731 -7.973,2.598 -2.633,0.879 -5.308,1.77 -7.957,2.648 -2.644,0.879 -5.312,1.758 -7.961,2.657 -19.722,6.55 -39.207,13.015 -58.433,18.867 -19.219,5.859 -38.262,11.109 -57.258,15.273 -19.004,4.149 -37.996,7.215 -57.117,8.7 -19.278,1.484 -38.801,1.367 -58.75,-0.918 -26.457,-3.036 -51.778,-9.676 -75.078,-19.2 -23.887,-9.804 -45.825,-22.722 -64.661,-38.066 -19.433,-15.828 -35.625,-34.266 -47.214,-54.465 -11.985,-20.867 -19.036,-43.633 -19.575,-67.168 -0.543,-24.305 5.879,-46.949 18.176,-66.93 12.578,-20.41 31.106,-37.765 54.168,-51.066 23.242,-13.426 50.734,-22.488 80.863,-26.379 29.911,-3.824 61.922,-2.476 94.317,4.77 24.91,5.562 48.222,14.121 70.23,24.851 21.528,10.481 41.723,22.988 60.918,36.719 18.703,13.43 36.391,27.961 53.469,42.941 16.621,14.539 32.617,29.5 48.379,44.239 1.57,1.48 3.152,2.937 4.695,4.402 1.574,1.465 3.117,2.91 4.668,4.336 1.555,1.453 3.059,2.883 4.613,4.309 1.504,1.433 3.016,2.847 4.52,4.296 l -5.598,-12.812 c -0.75,-1.613 -1.582,-3.399 -2.449,-5.324 -0.879,-1.903 -1.777,-3.965 -2.754,-6.145 -0.965,-2.207 -2.004,-4.519 -3.086,-6.98 -1.043,-2.469 -2.187,-5.059 -3.34,-7.774 l -2.05,-4.746 c -1.309,-3.262 -2.735,-6.672 -4.192,-10.254 -1.461,-3.594 -3.004,-7.375 -4.586,-11.297 -1.601,-3.957 -3.254,-8.086 -4.953,-12.394 -1.711,-4.348 -3.465,-8.856 -5.281,-13.574 -7.426,-19.434 -13.559,-35.985 -18.496,-49.911 -5.078,-14.242 -8.938,-25.57 -11.828,-34.433 -2.942,-8.985 -4.864,-15.313 -6.055,-19.555 -1.223,-4.234 -1.707,-6.265 -1.777,-6.637 -10.985,-7.949 -22.461,-15.57 -34.422,-22.808 -12.141,-7.402 -24.785,-14.375 -38.008,-20.879 -13.422,-6.602 -27.395,-12.695 -41.965,-18.184 -14.773,-5.566 -30.144,-10.507 -46.18,-14.726 -48.085,-12.598 -96.234,-16.817 -141.933,-13.301 -46.313,3.633 -89.184,15.078 -126.289,33.203 C 92.6094,487.5 62.168,511.75 40.0117,540.797 18.3984,569.137 5.01953,601.559 1.15234,636.527 0.761719,640.074 0.480469,643.617 0.273438,647.211 0.109375,650.758 0,654.352 0,657.965 c 0,3.582 0.109375,7.187 0.304688,10.801 0.183593,3.601 0.496093,7.214 0.906252,10.847 0.38281,3.614 0.89062,7.246 1.48437,10.813 0.56641,3.582 1.25,7.129 2.02344,10.672 0.75,3.523 1.60156,7.031 2.53906,10.488 0.9375,3.457 1.92188,6.887 3.03519,10.312 10.3242,32.176 27.9218,62.266 50.7148,89.219 21.7578,25.703 48.3012,48.594 77.9842,67.863 28.457,18.473 59.973,33.711 93.266,45.047 32.207,10.989 66.347,18.399 101.492,21.661 22.82,2.097 44.543,2.39 65.461,1.281 20.738,-1.106 40.75,-3.606 60.273,-7.055 19.422,-3.457 38.407,-7.898 57.071,-12.937 18.648,-5.028 37.05,-10.696 55.269,-16.543 2.953,-0.938 5.879,-1.864 8.813,-2.832 2.968,-0.965 5.894,-1.934 8.855,-2.891 2.949,-0.969 5.871,-1.926 8.809,-2.891 2.937,-0.976 5.851,-1.933 8.777,-2.89 2.414,-0.801 4.887,-1.629 7.324,-2.442 2.453,-0.82 4.875,-1.609 7.344,-2.429 2.453,-0.801 4.887,-1.614 7.324,-2.395 2.453,-0.809 4.883,-1.609 7.328,-2.383 10.879,-3.543 21.707,-7.051 32.293,-10.5 10.555,-3.433 20.852,-6.793 30.723,-10.027 9.871,-3.231 19.297,-6.316 28.066,-9.188 8.79,-2.91 16.965,-5.57 24.278,-7.98 1.301,-0.449 2.527,-0.84 3.683,-1.231 1.141,-0.371 2.215,-0.722 3.27,-1.066 1.016,-0.34 2.012,-0.672 2.949,-0.984 0.957,-0.301 1.867,-0.625 2.766,-0.899 l 66.394,-21.961 22.09,-7.328 c 2.715,-0.887 5.488,-1.785 8.34,-2.742 2.852,-0.926 5.762,-1.875 8.738,-2.844 2.961,-0.996 6.008,-1.968 9.075,-2.984 3.066,-1.008 6.218,-2.024 9.394,-3.059 4.738,-1.562 9.602,-3.156 14.563,-4.773 4.929,-1.621 9.949,-3.266 15.046,-4.934 5.098,-1.66 10.262,-3.32 15.489,-5.027 5.215,-1.691 10.488,-3.399 15.8,-5.109 2.508,-0.79 5.032,-1.629 7.559,-2.442 2.539,-0.84 5.039,-1.687 7.57,-2.5 2.528,-0.848 5.079,-1.68 7.586,-2.519 2.52,-0.829 5.047,-1.668 7.586,-2.5 18.86,-6.239 37.474,-12.395 55.664,-17.942 18.21,-5.554 35.98,-10.476 53.12,-14.265 17.1,-3.758 33.51,-6.36 49.02,-7.278 15.42,-0.894 29.84,-0.117 43.08,2.832 16.94,3.813 30.39,10.891 40.15,20.344 9.55,9.219 15.53,20.676 17.91,33.469 2.35,12.461 1.23,26.187 -3.31,40.41 -4.42,13.894 -12.15,28.262 -23.2,42.469 -10.79,13.925 -23.92,26.484 -38.29,37.351 -14.18,10.735 -29.77,19.895 -45.86,27.153 -16,7.195 -32.63,12.554 -49.02,15.679 -16.47,3.149 -32.87,4.067 -48.34,2.289 -12.3,-1.398 -23.34,-4.367 -33.517,-8.593 -10.293,-4.278 -19.739,-9.864 -28.684,-16.418 -9.133,-6.641 -17.781,-14.336 -26.316,-22.704 -8.762,-8.554 -17.434,-17.816 -26.411,-27.433 -0.906,-0.984 -1.843,-1.942 -2.761,-2.938 -0.938,-0.996 -1.875,-1.972 -2.801,-2.961 -0.93,-0.988 -1.867,-1.992 -2.813,-2.988 -0.937,-1.004 -1.875,-2.004 -2.812,-3.008 l 2.215,9.082 c 0.304,1.133 0.625,2.383 0.957,3.704 0.351,1.335 0.683,2.742 1.054,4.238 0.364,1.48 0.723,3.066 1.106,4.695 0.379,1.633 0.789,3.34 1.18,5.098 l 0.808,3.008 c 0.403,2.089 0.844,4.265 1.301,6.484 0.441,2.219 0.906,4.543 1.359,6.934 0.496,2.375 0.946,4.812 1.422,7.343 0.473,2.508 0.918,5.11 1.399,7.785 1.828,10.641 3.214,19.317 4.199,26.329 0.996,6.921 1.648,12.293 2.062,16.394 0.418,4.074 0.625,6.895 0.684,8.762 0.113,1.863 0.098,2.762 0.098,2.918 5.234,2.883 10.64,5.539 16.304,7.969 5.586,2.414 11.418,4.558 17.5,6.457 6.059,1.878 12.367,3.488 18.989,4.788 6.558,1.31 13.445,2.31 20.679,2.97" /><path
         id="path152"
         style="fill:#0e1531;fill-opacity:1;fill-rule:nonzero;stroke:none"
         d="m 709.258,741.684 32.043,-10.555 c 1.179,-0.41 2.359,-0.813 3.582,-1.223 1.203,-0.39 2.453,-0.808 3.691,-1.23 1.27,-0.418 2.559,-0.828 3.836,-1.238 1.313,-0.422 2.629,-0.864 3.949,-1.282 l 43.758,-14.414 c -1.297,-4.336 -2.605,-8.789 -3.965,-13.359 -1.386,-4.602 -2.785,-9.317 -4.199,-14.129 -1.433,-4.887 -2.898,-9.836 -4.383,-14.895 -1.484,-5.07 -3,-10.261 -4.543,-15.527 -0.722,-2.527 -1.457,-5.066 -2.226,-7.617 -0.762,-2.551 -1.504,-5.125 -2.293,-7.695 -0.766,-2.586 -1.543,-5.196 -2.324,-7.801 -0.813,-2.61 -1.582,-5.215 -2.395,-7.852 -6.062,-20 -12.226,-40.344 -17.723,-61.039 -5.656,-21.324 -10.558,-43.047 -13.878,-65.07 -3.399,-22.735 -5.098,-45.84 -4.153,-69.18 0.996,-24.062 4.817,-48.398 12.461,-72.89 10.258,-32.93 26.574,-63.204 47.426,-89.415 21.297,-26.875 47.051,-49.14 75.391,-65.468 28.542,-16.446 59.304,-26.645 90.132,-29.496 30.649,-2.789 60.845,1.722 88.595,14.3 27.13,12.305 49.01,30.938 65.37,53.75 15.82,22.09 26.37,47.911 31.54,75.508 4.96,26.68 4.95,55 -0.12,83.321 -4.89,27.382 -14.51,54.882 -28.87,81.171 -11,20.137 -24.08,38.414 -38.74,55.422 -14.4,16.684 -30.37,32.192 -47.45,46.965 -16.84,14.59 -34.754,28.477 -53.29,42.063 -18.273,13.406 -37.16,26.55 -56.105,39.714 -1.914,1.309 -3.809,2.629 -5.703,3.926 -1.887,1.336 -3.777,2.649 -5.676,3.957 -1.883,1.309 -3.75,2.625 -5.613,3.934 -1.887,1.316 -3.762,2.637 -5.625,3.957 l 15.144,-5.039 c 1.918,-0.695 3.989,-1.391 6.243,-2.141 2.246,-0.762 4.628,-1.551 7.175,-2.39 2.532,-0.832 5.215,-1.692 8.02,-2.61 2.812,-0.91 5.781,-1.836 8.848,-2.82 l 5.246,-1.738 c 3.613,-1.094 7.382,-2.239 11.304,-3.45 3.938,-1.191 8.008,-2.461 12.219,-3.73 4.258,-1.27 8.633,-2.59 13.176,-3.934 4.527,-1.359 9.246,-2.738 14.097,-4.132 19.61,-5.684 35.77,-10.215 49.05,-13.797 13.23,-3.586 23.58,-6.243 31.5,-8.176 7.92,-1.953 13.42,-3.203 17.02,-3.965 3.61,-0.793 5.28,-1.094 5.63,-1.152 8.63,-7.782 17.12,-15.868 25.39,-24.285 8.38,-8.528 16.54,-17.407 24.48,-26.68 8.01,-9.414 15.77,-19.238 23.27,-29.555 7.58,-10.465 14.91,-21.465 21.88,-33.039 23.25,-38.555 39.91,-79.434 49.86,-120.82 10.49,-43.633 13.61,-88.086 8.95,-130.84 -4.92,-45.234 -18.48,-88.555 -41.06,-126.465 C 1195.43,87.5391 1161.89,53.8281 1118.79,30.7813 1074.01,6.78125 1024.16,-2.89063 973.059,0.738281 921.32,4.42969 869.688,21.6797 822.063,50.4297 775.109,78.75 733.254,117.539 699.719,164.039 c -32.317,44.867 -56.192,95.883 -69.414,150.453 -7.563,31.309 -11.164,61.289 -11.778,90 -0.578,27.774 1.61,54.356 5.703,79.824 3.946,24.625 9.676,48.176 16.356,70.797 6.477,21.856 13.848,42.86 21.398,63.028 1.2,3.23 2.391,6.441 3.59,9.605 1.184,3.164 2.414,6.313 3.606,9.414 1.191,3.098 2.39,6.195 3.586,9.242 1.16,3.047 2.351,6.063 3.511,9.082 0.969,2.489 1.957,4.989 2.895,7.461 0.965,2.481 1.902,4.95 2.859,7.41 0.93,2.454 1.867,4.875 2.793,7.305 0.93,2.414 1.848,4.824 2.746,7.219 1.934,5.098 3.868,10.184 5.758,15.195 1.887,4.957 3.75,9.864 5.578,14.656 1.828,4.747 3.606,9.407 5.34,13.926 1.699,4.485 3.391,8.828 5.012,13.028" /></g></g></svg>