<?xml version="1.0" encoding="UTF-8" standalone="no"?>
<svg
   xmlns:dc="http://purl.org/dc/elements/1.1/"
   xmlns:cc="http://creativecommons.org/ns#"
   xmlns:rdf="http://www.w3.org/1999/02/22-rdf-syntax-ns#"
   xmlns:svg="http://www.w3.org/2000/svg"
   xmlns="http://www.w3.org/2000/svg"
   xmlns:sodipodi="http://sodipodi.sourceforge.net/DTD/sodipodi-0.dtd"
   xmlns:inkscape="http://www.inkscape.org/namespaces/inkscape"
   viewBox="0 0 859.31598 180"
   height="180"
   width="859.31598"
   xml:space="preserve"
   id="svg2"
   version="1.1"
   sodipodi:docname="ubc.svg"
   inkscape:version="0.92.4 (5da689c313, 2019-01-14)"><sodipodi:namedview
     pagecolor="#ffffff"
     bordercolor="#666666"
     borderopacity="1"
     objecttolerance="10"
     gridtolerance="10"
     guidetolerance="10"
     inkscape:pageopacity="0"
     inkscape:pageshadow="2"
     inkscape:window-width="796"
     inkscape:window-height="480"
     id="namedview49"
     showgrid="false"
     fit-margin-top="0"
     fit-margin-left="0"
     fit-margin-right="0"
     fit-margin-bottom="0"
     inkscape:zoom="0.31344697"
     inkscape:cx="429"
     inkscape:cy="97.890668"
     inkscape:window-x="0"
     inkscape:window-y="25"
     inkscape:window-maximized="0"
     inkscape:current-layer="svg2" /><metadata
     id="metadata8"><rdf:RDF><cc:Work
         rdf:about=""><dc:format>image/svg+xml</dc:format><dc:type
           rdf:resource="http://purl.org/dc/dcmitype/StillImage" /><dc:title></dc:title></cc:Work></rdf:RDF></metadata><defs
     id="defs6" /><g
     transform="matrix(1.3333333,0,0,-1.3333333,-98.999998,247.10933)"
     id="g10"><g
       transform="scale(0.1)"
       id="g12"><path
         id="path14"
         style="fill:#0e1531;fill-opacity:1;fill-rule:nonzero;stroke:none"
         d="m 1237.5,1351.98 52.78,-382.871 173.46,289.851 -73.6,-318.819 187,178.909 -97.38,-236.191 155.59,116.11 C 1562.93,801.879 1499.81,691.391 1237.5,601.57 v 0 0 C 975.184,691.391 912.07,801.879 839.648,998.969 l 155.59,-116.11 -97.379,236.191 187.001,-178.909 -73.6,318.819 173.46,-289.851 52.78,382.871 v 0"
         inkscape:connector-curvature="0" /><path
         id="path16"
         style="fill:#0e1531;fill-opacity:1;fill-rule:nonzero;stroke:none"
         d="m 962.703,1480.26 c -79.48,0 -126.945,42.53 -126.945,114 v 171.08 h 65.894 v -168.39 c 0,-41.52 21.832,-64.34 61.563,-64.34 40.735,0 62.335,21.87 62.335,63.16 v 169.57 h 66.34 v -169.95 c 0,-71.03 -49.5,-115.13 -129.187,-115.13"
         inkscape:connector-curvature="0" /><path
         id="path18"
         style="fill:#0e1531;fill-opacity:1;fill-rule:nonzero;stroke:none"
         d="m 1239.97,1485 h -92.03 v 280.34 h 93.4 c 68.27,0 105.89,-26.51 105.89,-74.45 0,-25.24 -13.16,-44.66 -38.28,-56.55 33.68,-11.89 50.78,-34.14 50.78,-66.29 0,-53.59 -42.5,-83.05 -119.76,-83.05 m -28.36,46.82 h 28.36 c 25.63,0 56.09,6.54 56.09,37.79 0,32.21 -30.97,39.06 -57.03,39.06 h -27.42 z m 0,120.9 h 23.94 c 32.07,0 49.81,12.03 49.81,33.84 0,21.45 -15.47,31.91 -47.19,31.91 h -26.56 v -65.75"
         inkscape:connector-curvature="0" /><path
         id="path20"
         style="fill:#0e1531;fill-opacity:1;fill-rule:nonzero;stroke:none"
         d="m 1544.3,1480.26 c -90.74,0 -149.33,56.66 -149.33,144.53 0,86.84 60.74,145.23 151.12,145.23 33.52,0 61.73,-6.59 86.22,-20.19 l 2.15,-1.19 -9.85,-57.09 -4.33,2.89 c -24.07,16.15 -46.96,23.61 -71.96,23.61 -53.91,0 -86.13,-34.75 -86.13,-92.91 0,-57.09 33.33,-92.53 87.03,-92.53 25.43,0 50.47,7.63 76.53,23.32 l 4.29,2.57 9.3,-53.24 -2.07,-1.21 c -26.76,-15.32 -59.76,-23.79 -92.97,-23.79"
         inkscape:connector-curvature="0" /><path
         id="path22"
         style="fill:#0e1531;fill-opacity:1;fill-rule:nonzero;stroke:none"
         d="M 1237.5,542.191 C 927.813,629.922 780,834.379 780,1125.86 v 689.96 h 915 v -689.96 c 0,-291.481 -147.82,-495.938 -457.5,-583.669 z m -495,1311.129 v -732.15 c 0,-307.701 167.418,-530.479 495,-617.85 327.57,87.371 495,310.149 495,617.85 v 732.15 h -990"
         inkscape:connector-curvature="0" /><path
         id="path24"
         style="fill:#0e1531;fill-opacity:1;fill-rule:nonzero;stroke:none"
         d="m 1237.52,1385.71 c 69.01,0 78.35,-28.01 133.94,-27.66 55.39,-0.35 64.88,27.66 133.9,27.66 69.02,0 78.52,-28.01 133.95,-27.66 v 64.28 c -55.43,-0.38 -64.93,27.28 -133.95,27.28 -69.02,0 -78.51,-27.66 -133.9,-27.28 -55.59,-0.38 -64.93,27.28 -133.94,27.28 -69.03,0 -78.36,-27.66 -133.95,-27.28 -55.39,-0.38 -64.89,27.28 -133.906,27.28 -69.027,0 -78.559,-27.66 -133.945,-27.28 v -64.28 c 55.386,-0.35 64.918,27.66 133.945,27.66 69.016,0 78.516,-28.01 133.906,-27.66 55.59,-0.35 64.92,27.66 133.95,27.66"
         inkscape:connector-curvature="0" /><path
         id="path26"
         style="fill:#0e1531;fill-opacity:1;fill-rule:nonzero;stroke:none"
         d="m 1281.25,1269.55 c 33.3,-7.97 49.14,-23.18 90.21,-22.92 55.39,-0.35 64.88,27.65 133.9,27.65 69.02,0 78.52,-28 133.95,-27.65 v 64.28 c -55.43,-0.38 -64.93,27.28 -133.95,27.28 -69.02,0 -78.51,-27.66 -133.9,-27.28 -44.63,-0.3 -59.47,17.45 -99.29,24.47 l 9.08,-65.83"
         inkscape:connector-curvature="0" /><path
         id="path28"
         style="fill:#0e1531;fill-opacity:1;fill-rule:nonzero;stroke:none"
         d="m 1103.57,1246.63 c 41.06,-0.26 56.9,14.94 90.18,22.91 l 9.07,65.83 c -39.79,-7.02 -54.64,-24.76 -99.25,-24.46 -55.39,-0.38 -64.89,27.28 -133.906,27.28 -69.027,0 -78.559,-27.66 -133.945,-27.28 v -64.28 c 55.386,-0.35 64.918,27.65 133.945,27.65 69.016,0 78.516,-28 133.906,-27.65"
         inkscape:connector-curvature="0" /><path
         id="path30"
         style="fill:#0e1531;fill-opacity:1;fill-rule:nonzero;stroke:none"
         d="m 1297.25,1153.44 c 18.83,-6.47 33.3,-14.38 55.67,-17.18 l 38.58,64.47 c -6.03,-0.83 -12.61,-1.29 -20.04,-1.24 -38.19,-0.26 -54.55,12.71 -83.43,20.86 l 9.22,-66.91"
         inkscape:connector-curvature="0" /><path
         id="path32"
         style="fill:#0e1531;fill-opacity:1;fill-rule:nonzero;stroke:none"
         d="m 1473.95,1160.56 c 9.03,1.43 19.29,2.3 31.41,2.3 69.02,0 78.52,-28 133.95,-27.65 v 64.28 c -55.43,-0.38 -64.93,27.28 -133.95,27.28 -5.83,0 -11.21,-0.21 -16.26,-0.58 l -15.15,-65.63"
         inkscape:connector-curvature="0" /><path
         id="path34"
         style="fill:#0e1531;fill-opacity:1;fill-rule:nonzero;stroke:none"
         d="m 1001.05,1160.57 -15.155,65.63 c -5.04,0.36 -10.407,0.57 -16.231,0.57 -69.027,0 -78.559,-27.66 -133.945,-27.28 v -64.28 c 55.386,-0.35 64.918,27.65 133.945,27.65 12.113,0 22.367,-0.87 31.386,-2.29"
         inkscape:connector-curvature="0" /><path
         id="path36"
         style="fill:#0e1531;fill-opacity:1;fill-rule:nonzero;stroke:none"
         d="m 1122.08,1136.25 c 22.37,2.81 36.84,10.71 55.67,17.18 l 9.22,66.91 c -28.86,-8.15 -45.23,-21.11 -83.4,-20.85 -7.44,-0.06 -14.03,0.41 -20.07,1.24 l 38.58,-64.48"
         inkscape:connector-curvature="0" /><path
         id="path38"
         style="fill:#0e1531;fill-opacity:1;fill-rule:nonzero;stroke:none"
         d="m 2331.2,1485 h -48.47 v 204.3 h -76.09 v 43.18 h 197.84 l 6.48,-43.18 h -79.76 v -204.3 0"
         inkscape:connector-curvature="0" /><path
         id="path40"
         style="fill:#0e1531;fill-opacity:1;fill-rule:nonzero;stroke:none"
         d="m 2705.58,1485 h -48.46 v 106.69 H 2550.55 V 1485 h -47.96 v 247.48 h 47.96 v -96.66 h 106.57 v 96.66 h 48.46 V 1485 v 0"
         inkscape:connector-curvature="0" /><path
         id="path42"
         style="fill:#0e1531;fill-opacity:1;fill-rule:nonzero;stroke:none"
         d="m 3002.78,1485 h -159.06 v 247.48 h 155.71 v -42.75 h -107.71 v -54.78 h 85.77 l 7.03,-42.75 h -92.8 v -64.45 h 111.06 v -42.75 0"
         inkscape:connector-curvature="0" /><path
         id="path44"
         style="fill:#0e1531;fill-opacity:1;fill-rule:nonzero;stroke:none"
         d="m 3375.8,1480.26 c -63.26,0 -100.99,37.93 -100.99,101.5 v 150.72 h 47.96 v -148.81 c 0,-39.77 18.96,-61.65 53.46,-61.65 35.35,0 54,20.91 54,60.64 v 149.82 h 48.43 v -148.81 c 0,-64.79 -38.48,-103.41 -102.86,-103.41 v 0"
         inkscape:connector-curvature="0" /><path
         id="path46"
         style="fill:#0e1531;fill-opacity:1;fill-rule:nonzero;stroke:none"
         d="m 3812.66,1485 h -41.6 l -117.73,173.44 V 1485 h -44.14 v 247.48 h 46.91 l 112.39,-166.14 v 166.14 h 44.17 V 1485 v 0"
         inkscape:connector-curvature="0" /><path
         id="path48"
         style="fill:#0e1531;fill-opacity:1;fill-rule:nonzero;stroke:none"
         d="m 3998.68,1485 h -48.47 v 247.48 h 48.47 V 1485 v 0"
         inkscape:connector-curvature="0" /><path
         id="path50"
         style="fill:#0e1531;fill-opacity:1;fill-rule:nonzero;stroke:none"
         d="m 4233.17,1481.21 h -43.51 l -95.49,245.34 48.46,10.58 70.64,-193.18 69.14,188.53 h 48.82 l -98.06,-251.27 v 0"
         inkscape:connector-curvature="0" /><path
         id="path52"
         style="fill:#0e1531;fill-opacity:1;fill-rule:nonzero;stroke:none"
         d="M 4581.56,1485 H 4422.5 v 247.48 h 155.71 v -42.75 h -107.67 v -54.78 h 85.74 l 7.06,-42.75 h -92.8 v -64.45 h 111.02 v -42.75 0"
         inkscape:connector-curvature="0" /><path
         id="path54"
         style="fill:#0e1531;fill-opacity:1;fill-rule:nonzero;stroke:none"
         d="m 4751.08,1617.25 h 29.22 c 29.86,0 46.32,13.29 46.32,37.7 0,29.2 -25.2,35.31 -46.32,35.31 h -29.22 z m 93.22,-135.39 -70.51,96.89 h -22.71 V 1485 h -48.04 v 247.48 h 77.7 c 58.76,0 93.88,-28.78 93.88,-77.1 0,-33.76 -17.01,-57.82 -49.24,-69.99 l 68.68,-92.29 -49.76,-11.24 v 0"
         inkscape:connector-curvature="0" /><path
         id="path56"
         style="fill:#0e1531;fill-opacity:1;fill-rule:nonzero;stroke:none"
         d="m 5070.36,1481.72 c -26.22,0 -56.23,6.48 -84.13,18.35 l -1.87,0.73 7.18,44.06 2.92,-1.56 c 24.78,-12.95 55.3,-21.28 77.85,-21.28 27.24,0 44.88,12.03 44.88,30.49 0,18.44 -11.51,25.56 -46.2,37.42 -51.91,18.13 -78.21,34.5 -78.21,73.66 0,42.51 34.46,72.29 83.75,72.29 25.05,0 50.42,-5.23 71.33,-14.58 l 1.72,-0.82 -7.02,-44.93 -3.05,1.58 c -23.1,12.04 -44.17,17.87 -64.35,17.87 -21.58,0 -37.81,-11.22 -37.81,-26.16 0,-16.51 11.24,-22.81 49.56,-36 48.54,-16.94 74.92,-33.89 74.92,-75.04 0,-45.44 -36.76,-76.08 -91.47,-76.08 v 0"
         inkscape:connector-curvature="0" /><path
         id="path58"
         style="fill:#0e1531;fill-opacity:1;fill-rule:nonzero;stroke:none"
         d="m 5330.06,1485 h -48.47 v 247.48 h 48.47 V 1485 v 0"
         inkscape:connector-curvature="0" /><path
         id="path60"
         style="fill:#0e1531;fill-opacity:1;fill-rule:nonzero;stroke:none"
         d="m 5548,1485 h -48.39 v 204.3 h -76.05 v 43.18 h 197.8 l 6.48,-43.18 H 5548 v -204.3 0"
         inkscape:connector-curvature="0" /><path
         id="path62"
         style="fill:#0e1531;fill-opacity:1;fill-rule:nonzero;stroke:none"
         d="m 5797.28,1485 h -48.47 v 95.55 l -88.5,145.97 49.17,10.53 64.23,-112.58 62.24,108.01 h 53.19 l -91.86,-151.43 v -96.05 0"
         inkscape:connector-curvature="0" /><path
         id="path64"
         style="fill:#0e1531;fill-opacity:1;fill-rule:nonzero;stroke:none"
         d="m 2325.83,1200.51 c -41.98,0 -70.32,-34.77 -70.32,-86.5 0,-50.7 29.58,-87.5 70.32,-87.5 41.72,0 69.81,34.98 69.81,87 0,50.36 -29.38,87 -69.81,87 z m 0,-215.248 c -59.31,0 -119.21,44.058 -119.21,128.248 0,84.52 59.9,128.68 119.21,128.68 59,0 118.63,-43.96 118.63,-128.18 0,-84.52 -59.63,-128.748 -118.63,-128.748 v 0"
         inkscape:connector-curvature="0" /><path
         id="path66"
         style="fill:#0e1531;fill-opacity:1;fill-rule:nonzero;stroke:none"
         d="m 2603.75,990 h -47.88 v 247.48 h 151.76 v -42.75 h -103.88 v -58.63 h 81.52 l 7.03,-42.73 h -88.55 V 990 v 0"
         inkscape:connector-curvature="0" /><path
         id="path68"
         style="fill:#0e1531;fill-opacity:1;fill-rule:nonzero;stroke:none"
         d="m 3015.64,1138.93 h 31.53 c 27.59,0 41.48,10.26 41.48,30.54 0,11.64 -4.18,27.2 -40.08,27.2 h -32.93 z m 0,-108.6 h 35.78 c 32.16,0 47.77,10.95 47.77,33.46 0,23.73 -15.85,35.83 -47.26,35.83 h -36.29 z M 3050.99,990 h -81.44 v 247.48 h 80.93 c 52.14,0 83.24,-24 83.24,-64.15 0,-23.73 -10.3,-41.25 -30.79,-52.17 27.75,-10.09 41.91,-29.37 41.91,-57.37 0,-47.53 -33.4,-73.79 -93.85,-73.79 v 0"
         inkscape:connector-curvature="0" /><path
         id="path70"
         style="fill:#0e1531;fill-opacity:1;fill-rule:nonzero;stroke:none"
         d="m 3309.91,1122.25 h 29.11 c 29.81,0 46.28,13.29 46.28,37.7 0,29.2 -25.13,35.31 -46.28,35.31 h -29.11 z m 93.03,-135.391 -70.51,96.891 h -22.52 V 990 h -48.04 v 247.48 h 77.62 c 58.77,0 93.81,-28.78 93.81,-77.11 0,-33.75 -17.02,-57.81 -49.17,-69.98 l 68.64,-92.288 -49.83,-11.243 v 0"
         inkscape:connector-curvature="0" /><path
         id="path72"
         style="fill:#0e1531;fill-opacity:1;fill-rule:nonzero;stroke:none"
         d="m 3607.26,990 h -48.54 v 247.48 h 48.54 V 990 v 0"
         inkscape:connector-curvature="0" /><path
         id="path74"
         style="fill:#0e1531;fill-opacity:1;fill-rule:nonzero;stroke:none"
         d="m 3825.56,990 h -48.39 v 204.3 h -76.1 v 43.18 h 197.85 l 6.44,-43.18 h -79.8 V 990 v 0"
         inkscape:connector-curvature="0" /><path
         id="path76"
         style="fill:#0e1531;fill-opacity:1;fill-rule:nonzero;stroke:none"
         d="m 4042.37,990 h -48.47 v 247.48 h 48.47 V 990 v 0"
         inkscape:connector-curvature="0" /><path
         id="path78"
         style="fill:#0e1531;fill-opacity:1;fill-rule:nonzero;stroke:none"
         d="m 4242.24,986.719 c -26.3,0 -56.19,6.48 -84.21,18.351 l -1.79,0.73 7.02,44.06 3,-1.56 c 24.9,-12.95 55.46,-21.29 77.85,-21.29 27.24,0 44.92,12.04 44.92,30.5 0,18.44 -11.55,25.56 -46.24,37.42 -51.79,18.13 -78.2,34.5 -78.2,73.66 0,42.51 34.53,72.29 83.89,72.29 24.98,0 50.27,-5.23 71.22,-14.58 l 1.76,-0.82 -7.03,-44.93 -3,1.58 c -23.1,12.04 -44.22,17.87 -64.47,17.87 -21.46,0 -37.73,-11.22 -37.73,-26.16 0,-16.51 11.16,-22.81 49.56,-36 48.5,-16.94 74.8,-33.89 74.8,-75.04 0,-45.44 -36.72,-76.081 -91.35,-76.081 v 0"
         inkscape:connector-curvature="0" /><path
         id="path80"
         style="fill:#0e1531;fill-opacity:1;fill-rule:nonzero;stroke:none"
         d="m 4641.99,990 h -48.46 v 106.69 h -106.5 V 990 h -47.96 v 247.48 h 47.96 v -96.66 h 106.5 v 96.66 h 48.46 V 990 v 0"
         inkscape:connector-curvature="0" /><path
         id="path82"
         style="fill:#0e1531;fill-opacity:1;fill-rule:nonzero;stroke:none"
         d="m 5013.64,985.262 c -71.25,0 -119.17,51.318 -119.17,127.798 0,77.24 47.92,129.13 119.17,129.13 28.26,0 50.97,-5.96 71.22,-18.97 l 1.36,-0.9 -7.64,-45.26 -3.28,2.39 c -19.55,14.72 -38.59,21.57 -60.18,21.57 -44.56,0 -71.21,-32.82 -71.21,-87.51 0,-53.95 27.55,-87.45 72.15,-87.45 21.35,0 43.59,7.63 64.12,22.01 l 3.2,2.26 6.63,-42.3 -1.36,-0.8 c -21.47,-14.14 -48.04,-21.968 -75.01,-21.968 v 0"
         inkscape:connector-curvature="0" /><path
         id="path84"
         style="fill:#0e1531;fill-opacity:1;fill-rule:nonzero;stroke:none"
         d="m 5298.12,1200.51 c -42.07,0 -70.32,-34.77 -70.32,-86.5 0,-50.7 29.58,-87.5 70.32,-87.5 41.64,0 69.73,34.98 69.73,87 0,50.36 -29.34,87 -69.73,87 z m 0,-215.248 c -59.32,0 -119.21,44.058 -119.21,128.248 0,84.52 59.89,128.68 119.21,128.68 58.88,0 118.63,-43.96 118.63,-128.18 0,-84.52 -59.75,-128.748 -118.63,-128.748 v 0"
         inkscape:connector-curvature="0" /><path
         id="path86"
         style="fill:#0e1531;fill-opacity:1;fill-rule:nonzero;stroke:none"
         d="m 5669.15,990 h -146.41 v 247.48 h 47.99 V 1032.3 h 91.55 l 6.87,-42.3 v 0"
         inkscape:connector-curvature="0" /><path
         id="path88"
         style="fill:#0e1531;fill-opacity:1;fill-rule:nonzero;stroke:none"
         d="m 5855.44,985.262 c -63.22,0 -100.99,37.928 -100.99,101.498 v 150.72 h 48 v -148.81 c 0,-39.77 18.93,-61.66 53.5,-61.66 35.27,0 53.85,20.92 53.85,60.7 v 149.77 h 48.58 v -148.81 c 0,-64.8 -38.51,-103.408 -102.94,-103.408 v 0"
         inkscape:connector-curvature="0" /><path
         id="path90"
         style="fill:#0e1531;fill-opacity:1;fill-rule:nonzero;stroke:none"
         d="m 6245.55,989.082 h -46.4 L 6133.13,1176.75 6119.39,990 h -44.09 l 19.51,247.48 h 65.24 l 64.78,-189.59 65.64,189.59 h 63.84 L 6373.82,990 h -48 l -14.12,186.75 -66.15,-187.668 v 0"
         inkscape:connector-curvature="0" /><path
         id="path92"
         style="fill:#0e1531;fill-opacity:1;fill-rule:nonzero;stroke:none"
         d="m 6549.54,1138.93 h 31.49 c 27.51,0 41.45,10.26 41.45,30.54 0,11.64 -4.06,27.2 -40.04,27.2 h -32.9 z m 0,-108.6 h 35.67 c 32.19,0 47.88,10.95 47.88,33.46 0,23.73 -15.93,35.83 -47.34,35.83 h -36.21 z M 6584.82,990 h -81.4 v 247.48 h 80.89 c 52.25,0 83.39,-24 83.39,-64.15 0,-23.73 -10.42,-41.25 -30.87,-52.17 27.67,-10.09 41.84,-29.37 41.84,-57.37 0,-47.53 -33.29,-73.79 -93.85,-73.79 v 0"
         inkscape:connector-curvature="0" /><path
         id="path94"
         style="fill:#0e1531;fill-opacity:1;fill-rule:nonzero;stroke:none"
         d="m 6848.61,990 h -48.5 v 247.48 h 48.5 V 990 v 0"
         inkscape:connector-curvature="0" /><path
         id="path96"
         style="fill:#0e1531;fill-opacity:1;fill-rule:nonzero;stroke:none"
         d="m 7027.84,1093.51 h 71.88 c -4.41,12.6 -22.48,61.21 -35.74,97.03 z m 112,-108.17 -23.96,65.44 H 7012.11 L 6989.6,990 h -47.41 l 97.59,250.35 h 51.28 l 96.31,-244.338 -47.53,-10.672 v 0"
         inkscape:connector-curvature="0" /></g></g></svg>